<mxfile host="app.diagrams.net" modified="2021-06-24T20:55:44.135Z" agent="5.0 (X11)" etag="yFAigj4Rny70gr1f6gGE" version="14.8.1" type="github">
  <diagram name="Page-1" id="58cdce13-f638-feb5-8d6f-7d28b1aa9fa0">
    <mxGraphModel dx="2539" dy="793" grid="1" gridSize="10" guides="1" tooltips="1" connect="1" arrows="1" fold="1" page="1" pageScale="1" pageWidth="1100" pageHeight="850" background="none" math="0" shadow="0">
      <root>
        <mxCell id="0" />
        <mxCell id="1" parent="0" />
        <mxCell id="382b91b5511bd0f7-1" value="" style="ellipse;html=1;shape=startState;fillColor=#000000;strokeColor=#ff0000;rounded=1;shadow=0;comic=0;labelBackgroundColor=none;fontFamily=Verdana;fontSize=12;fontColor=#000000;align=center;direction=south;" parent="1" vertex="1">
          <mxGeometry x="-60" y="455" width="30" height="30" as="geometry" />
        </mxCell>
        <mxCell id="Iq8EzkBG9caAKW_E3nGO-87" style="edgeStyle=orthogonalEdgeStyle;rounded=0;jumpSize=6;orthogonalLoop=1;jettySize=auto;html=1;exitX=1;exitY=0.5;exitDx=0;exitDy=0;entryX=0;entryY=0.5;entryDx=0;entryDy=0;" edge="1" parent="1" source="382b91b5511bd0f7-5" target="Iq8EzkBG9caAKW_E3nGO-78">
          <mxGeometry relative="1" as="geometry" />
        </mxCell>
        <mxCell id="382b91b5511bd0f7-5" value="Bootloader Mode" style="rounded=1;whiteSpace=wrap;html=1;arcSize=0;fillColor=#ffffc0;strokeColor=#ff0000;shadow=0;comic=0;labelBackgroundColor=none;fontFamily=Verdana;fontSize=12;fontColor=#000000;align=center;" parent="1" vertex="1">
          <mxGeometry x="1040" y="540" width="120" height="60" as="geometry" />
        </mxCell>
        <mxCell id="Iq8EzkBG9caAKW_E3nGO-45" style="edgeStyle=orthogonalEdgeStyle;rounded=0;jumpSize=6;orthogonalLoop=1;jettySize=auto;html=1;exitX=1;exitY=0.5;exitDx=0;exitDy=0;entryX=0;entryY=0.5;entryDx=0;entryDy=0;" edge="1" parent="1" source="Iq8EzkBG9caAKW_E3nGO-56" target="Iq8EzkBG9caAKW_E3nGO-34">
          <mxGeometry relative="1" as="geometry">
            <Array as="points">
              <mxPoint x="295" y="470" />
              <mxPoint x="350" y="470" />
              <mxPoint x="350" y="190" />
            </Array>
          </mxGeometry>
        </mxCell>
        <mxCell id="Iq8EzkBG9caAKW_E3nGO-46" style="edgeStyle=orthogonalEdgeStyle;rounded=0;jumpSize=6;orthogonalLoop=1;jettySize=auto;html=1;exitX=1;exitY=0.5;exitDx=0;exitDy=0;entryX=0;entryY=0.5;entryDx=0;entryDy=0;" edge="1" parent="1" source="Iq8EzkBG9caAKW_E3nGO-56" target="Iq8EzkBG9caAKW_E3nGO-35">
          <mxGeometry relative="1" as="geometry">
            <Array as="points">
              <mxPoint x="295" y="470" />
              <mxPoint x="350" y="470" />
              <mxPoint x="350" y="260" />
            </Array>
          </mxGeometry>
        </mxCell>
        <mxCell id="Iq8EzkBG9caAKW_E3nGO-47" style="edgeStyle=orthogonalEdgeStyle;rounded=0;jumpSize=6;orthogonalLoop=1;jettySize=auto;html=1;exitX=1;exitY=0.5;exitDx=0;exitDy=0;" edge="1" parent="1" source="Iq8EzkBG9caAKW_E3nGO-56" target="Iq8EzkBG9caAKW_E3nGO-36">
          <mxGeometry relative="1" as="geometry">
            <Array as="points">
              <mxPoint x="295" y="470" />
              <mxPoint x="350" y="470" />
              <mxPoint x="350" y="330" />
            </Array>
          </mxGeometry>
        </mxCell>
        <mxCell id="Iq8EzkBG9caAKW_E3nGO-48" style="edgeStyle=orthogonalEdgeStyle;rounded=0;jumpSize=6;orthogonalLoop=1;jettySize=auto;html=1;exitX=1;exitY=0.5;exitDx=0;exitDy=0;" edge="1" parent="1" source="Iq8EzkBG9caAKW_E3nGO-56" target="Iq8EzkBG9caAKW_E3nGO-37">
          <mxGeometry relative="1" as="geometry">
            <Array as="points">
              <mxPoint x="295" y="470" />
              <mxPoint x="350" y="470" />
              <mxPoint x="350" y="400" />
            </Array>
          </mxGeometry>
        </mxCell>
        <mxCell id="Iq8EzkBG9caAKW_E3nGO-49" style="edgeStyle=orthogonalEdgeStyle;rounded=0;jumpSize=6;orthogonalLoop=1;jettySize=auto;html=1;exitX=1;exitY=0.5;exitDx=0;exitDy=0;entryX=0;entryY=0.5;entryDx=0;entryDy=0;" edge="1" parent="1" source="Iq8EzkBG9caAKW_E3nGO-56" target="Iq8EzkBG9caAKW_E3nGO-38">
          <mxGeometry relative="1" as="geometry">
            <Array as="points">
              <mxPoint x="295" y="470" />
            </Array>
          </mxGeometry>
        </mxCell>
        <mxCell id="Iq8EzkBG9caAKW_E3nGO-50" style="edgeStyle=orthogonalEdgeStyle;rounded=0;jumpSize=6;orthogonalLoop=1;jettySize=auto;html=1;exitX=1;exitY=0.5;exitDx=0;exitDy=0;entryX=0;entryY=0.5;entryDx=0;entryDy=0;" edge="1" parent="1" source="Iq8EzkBG9caAKW_E3nGO-56" target="Iq8EzkBG9caAKW_E3nGO-39">
          <mxGeometry relative="1" as="geometry">
            <Array as="points">
              <mxPoint x="295" y="470" />
              <mxPoint x="350" y="470" />
              <mxPoint x="350" y="540" />
            </Array>
          </mxGeometry>
        </mxCell>
        <mxCell id="Iq8EzkBG9caAKW_E3nGO-51" style="edgeStyle=orthogonalEdgeStyle;rounded=0;jumpSize=6;orthogonalLoop=1;jettySize=auto;html=1;exitX=1;exitY=0.5;exitDx=0;exitDy=0;entryX=0;entryY=0.5;entryDx=0;entryDy=0;" edge="1" parent="1" source="Iq8EzkBG9caAKW_E3nGO-56" target="Iq8EzkBG9caAKW_E3nGO-40">
          <mxGeometry relative="1" as="geometry">
            <Array as="points">
              <mxPoint x="295" y="470" />
              <mxPoint x="350" y="470" />
              <mxPoint x="350" y="610" />
            </Array>
          </mxGeometry>
        </mxCell>
        <mxCell id="Iq8EzkBG9caAKW_E3nGO-52" style="edgeStyle=orthogonalEdgeStyle;rounded=0;jumpSize=6;orthogonalLoop=1;jettySize=auto;html=1;exitX=1;exitY=0.5;exitDx=0;exitDy=0;entryX=0;entryY=0.5;entryDx=0;entryDy=0;" edge="1" parent="1" source="Iq8EzkBG9caAKW_E3nGO-56" target="Iq8EzkBG9caAKW_E3nGO-41">
          <mxGeometry relative="1" as="geometry">
            <Array as="points">
              <mxPoint x="295" y="470" />
              <mxPoint x="350" y="470" />
              <mxPoint x="350" y="680" />
            </Array>
          </mxGeometry>
        </mxCell>
        <mxCell id="Iq8EzkBG9caAKW_E3nGO-53" style="edgeStyle=orthogonalEdgeStyle;rounded=0;jumpSize=6;orthogonalLoop=1;jettySize=auto;html=1;exitX=1;exitY=0.5;exitDx=0;exitDy=0;entryX=0;entryY=0.5;entryDx=0;entryDy=0;" edge="1" parent="1" source="Iq8EzkBG9caAKW_E3nGO-56" target="Iq8EzkBG9caAKW_E3nGO-42">
          <mxGeometry relative="1" as="geometry">
            <Array as="points">
              <mxPoint x="295" y="470" />
              <mxPoint x="350" y="470" />
              <mxPoint x="350" y="750" />
            </Array>
          </mxGeometry>
        </mxCell>
        <mxCell id="Iq8EzkBG9caAKW_E3nGO-57" style="edgeStyle=orthogonalEdgeStyle;rounded=0;jumpSize=6;orthogonalLoop=1;jettySize=auto;html=1;exitX=1;exitY=0.5;exitDx=0;exitDy=0;entryX=0;entryY=0.5;entryDx=0;entryDy=0;" edge="1" parent="1" source="382b91b5511bd0f7-6" target="Iq8EzkBG9caAKW_E3nGO-56">
          <mxGeometry relative="1" as="geometry">
            <mxPoint x="220" y="469.8333333333335" as="targetPoint" />
          </mxGeometry>
        </mxCell>
        <mxCell id="382b91b5511bd0f7-6" value="&lt;div&gt;Start&lt;/div&gt;" style="rounded=1;whiteSpace=wrap;html=1;arcSize=24;fillColor=#ffffc0;strokeColor=#ff0000;shadow=0;comic=0;labelBackgroundColor=none;fontFamily=Verdana;fontSize=12;fontColor=#000000;align=center;" parent="1" vertex="1">
          <mxGeometry x="20" y="440" width="120" height="60" as="geometry" />
        </mxCell>
        <mxCell id="Iq8EzkBG9caAKW_E3nGO-73" style="edgeStyle=orthogonalEdgeStyle;rounded=0;jumpSize=6;orthogonalLoop=1;jettySize=auto;html=1;exitX=1;exitY=0.5;exitDx=0;exitDy=0;" edge="1" parent="1" source="382b91b5511bd0f7-9" target="Iq8EzkBG9caAKW_E3nGO-70">
          <mxGeometry relative="1" as="geometry" />
        </mxCell>
        <mxCell id="382b91b5511bd0f7-9" value="Working Image" style="rounded=1;whiteSpace=wrap;html=1;arcSize=0;fillColor=#ffffc0;strokeColor=#ff0000;shadow=0;comic=0;labelBackgroundColor=none;fontFamily=Verdana;fontSize=12;fontColor=#000000;align=center;" parent="1" vertex="1">
          <mxGeometry x="1040" y="180" width="120" height="60" as="geometry" />
        </mxCell>
        <mxCell id="Iq8EzkBG9caAKW_E3nGO-74" style="edgeStyle=orthogonalEdgeStyle;rounded=0;jumpSize=6;orthogonalLoop=1;jettySize=auto;html=1;exitX=1;exitY=0.5;exitDx=0;exitDy=0;entryX=0;entryY=0.5;entryDx=0;entryDy=0;" edge="1" parent="1" source="382b91b5511bd0f7-10" target="Iq8EzkBG9caAKW_E3nGO-71">
          <mxGeometry relative="1" as="geometry" />
        </mxCell>
        <mxCell id="382b91b5511bd0f7-10" value="Golden Image&lt;span style=&quot;white-space: pre&quot;&gt;&lt;/span&gt;" style="rounded=1;whiteSpace=wrap;html=1;arcSize=0;fillColor=#ffffc0;strokeColor=#ff0000;shadow=0;comic=0;labelBackgroundColor=none;fontFamily=Verdana;fontSize=12;fontColor=#000000;align=center;" parent="1" vertex="1">
          <mxGeometry x="1040" y="360" width="120" height="60" as="geometry" />
        </mxCell>
        <mxCell id="2a3bc250acf0617d-9" style="edgeStyle=orthogonalEdgeStyle;html=1;labelBackgroundColor=none;endArrow=open;endSize=8;strokeColor=#ff0000;fontFamily=Verdana;fontSize=12;align=left;" parent="1" source="382b91b5511bd0f7-1" target="382b91b5511bd0f7-6" edge="1">
          <mxGeometry relative="1" as="geometry" />
        </mxCell>
        <mxCell id="Iq8EzkBG9caAKW_E3nGO-20" value="&lt;div&gt;PC == 0&lt;br&gt;&lt;/div&gt;" style="edgeLabel;html=1;align=center;verticalAlign=middle;resizable=0;points=[];" vertex="1" connectable="0" parent="2a3bc250acf0617d-9">
          <mxGeometry x="-0.3077" relative="1" as="geometry">
            <mxPoint x="3" y="-15" as="offset" />
          </mxGeometry>
        </mxCell>
        <mxCell id="Iq8EzkBG9caAKW_E3nGO-11" value="&lt;div&gt;BootType&lt;/div&gt;" style="text;html=1;align=center;verticalAlign=middle;resizable=0;points=[];autosize=1;strokeColor=none;" vertex="1" parent="1">
          <mxGeometry x="-30" y="240" width="70" height="20" as="geometry" />
        </mxCell>
        <mxCell id="Iq8EzkBG9caAKW_E3nGO-12" value="&lt;div&gt;Attempts&lt;/div&gt;" style="text;html=1;align=center;verticalAlign=middle;resizable=0;points=[];autosize=1;strokeColor=none;" vertex="1" parent="1">
          <mxGeometry x="-25" y="260" width="60" height="20" as="geometry" />
        </mxCell>
        <mxCell id="Iq8EzkBG9caAKW_E3nGO-13" value="&lt;div&gt;BootCount&lt;/div&gt;" style="text;html=1;align=center;verticalAlign=middle;resizable=0;points=[];autosize=1;strokeColor=none;" vertex="1" parent="1">
          <mxGeometry x="-30" y="280" width="70" height="20" as="geometry" />
        </mxCell>
        <mxCell id="Iq8EzkBG9caAKW_E3nGO-61" style="edgeStyle=orthogonalEdgeStyle;rounded=0;jumpSize=6;orthogonalLoop=1;jettySize=auto;html=1;exitX=1;exitY=0.5;exitDx=0;exitDy=0;entryX=0;entryY=0.5;entryDx=0;entryDy=0;" edge="1" parent="1" source="Iq8EzkBG9caAKW_E3nGO-34" target="Iq8EzkBG9caAKW_E3nGO-60">
          <mxGeometry relative="1" as="geometry" />
        </mxCell>
        <mxCell id="Iq8EzkBG9caAKW_E3nGO-34" value="POWERON_RESET" style="rounded=0;whiteSpace=wrap;html=1;" vertex="1" parent="1">
          <mxGeometry x="490" y="160" width="120" height="60" as="geometry" />
        </mxCell>
        <mxCell id="Iq8EzkBG9caAKW_E3nGO-146" style="edgeStyle=orthogonalEdgeStyle;rounded=0;jumpSize=6;orthogonalLoop=1;jettySize=auto;html=1;exitX=1;exitY=0.75;exitDx=0;exitDy=0;entryX=0;entryY=0.5;entryDx=0;entryDy=0;fontColor=#FF0000;" edge="1" parent="1" source="Iq8EzkBG9caAKW_E3nGO-35" target="Iq8EzkBG9caAKW_E3nGO-109">
          <mxGeometry relative="1" as="geometry">
            <Array as="points">
              <mxPoint x="680" y="275" />
              <mxPoint x="680" y="768" />
            </Array>
          </mxGeometry>
        </mxCell>
        <mxCell id="Iq8EzkBG9caAKW_E3nGO-147" style="edgeStyle=orthogonalEdgeStyle;rounded=0;jumpSize=6;orthogonalLoop=1;jettySize=auto;html=1;exitX=1;exitY=0.25;exitDx=0;exitDy=0;entryX=0;entryY=0.5;entryDx=0;entryDy=0;fontColor=#FF0000;" edge="1" parent="1" source="Iq8EzkBG9caAKW_E3nGO-35" target="Iq8EzkBG9caAKW_E3nGO-129">
          <mxGeometry relative="1" as="geometry" />
        </mxCell>
        <mxCell id="Iq8EzkBG9caAKW_E3nGO-35" value="SW_RESET" style="rounded=0;whiteSpace=wrap;html=1;" vertex="1" parent="1">
          <mxGeometry x="490" y="230" width="120" height="60" as="geometry" />
        </mxCell>
        <mxCell id="Iq8EzkBG9caAKW_E3nGO-88" style="edgeStyle=orthogonalEdgeStyle;rounded=0;jumpSize=6;orthogonalLoop=1;jettySize=auto;html=1;exitX=1;exitY=0.5;exitDx=0;exitDy=0;entryX=0;entryY=0.5;entryDx=0;entryDy=0;" edge="1" parent="1" source="Iq8EzkBG9caAKW_E3nGO-36" target="Iq8EzkBG9caAKW_E3nGO-89">
          <mxGeometry relative="1" as="geometry">
            <mxPoint x="660" y="330" as="targetPoint" />
            <Array as="points">
              <mxPoint x="610" y="340" />
            </Array>
          </mxGeometry>
        </mxCell>
        <mxCell id="Iq8EzkBG9caAKW_E3nGO-36" value="OSC_FAILURE" style="rounded=0;whiteSpace=wrap;html=1;" vertex="1" parent="1">
          <mxGeometry x="490" y="300" width="120" height="60" as="geometry" />
        </mxCell>
        <mxCell id="Iq8EzkBG9caAKW_E3nGO-153" style="edgeStyle=orthogonalEdgeStyle;rounded=0;jumpSize=6;orthogonalLoop=1;jettySize=auto;html=1;exitX=0;exitY=0.75;exitDx=0;exitDy=0;entryX=0;entryY=0.75;entryDx=0;entryDy=0;fontColor=#FF0000;" edge="1" parent="1" source="Iq8EzkBG9caAKW_E3nGO-37" target="Iq8EzkBG9caAKW_E3nGO-35">
          <mxGeometry relative="1" as="geometry">
            <Array as="points">
              <mxPoint x="440" y="415" />
              <mxPoint x="440" y="275" />
            </Array>
          </mxGeometry>
        </mxCell>
        <mxCell id="Iq8EzkBG9caAKW_E3nGO-37" value="WDT_RESET" style="rounded=0;whiteSpace=wrap;html=1;" vertex="1" parent="1">
          <mxGeometry x="490" y="370" width="120" height="60" as="geometry" />
        </mxCell>
        <mxCell id="Iq8EzkBG9caAKW_E3nGO-68" style="edgeStyle=orthogonalEdgeStyle;rounded=0;jumpSize=6;orthogonalLoop=1;jettySize=auto;html=1;exitX=1;exitY=0.5;exitDx=0;exitDy=0;" edge="1" parent="1" source="Iq8EzkBG9caAKW_E3nGO-38">
          <mxGeometry relative="1" as="geometry">
            <mxPoint x="1070" y="600" as="targetPoint" />
            <Array as="points">
              <mxPoint x="770" y="470" />
              <mxPoint x="770" y="680" />
              <mxPoint x="1070" y="680" />
            </Array>
          </mxGeometry>
        </mxCell>
        <mxCell id="Iq8EzkBG9caAKW_E3nGO-38" value="DEBUG_RESET" style="rounded=0;whiteSpace=wrap;html=1;" vertex="1" parent="1">
          <mxGeometry x="490" y="440" width="120" height="60" as="geometry" />
        </mxCell>
        <mxCell id="Iq8EzkBG9caAKW_E3nGO-95" style="edgeStyle=orthogonalEdgeStyle;rounded=0;jumpSize=6;orthogonalLoop=1;jettySize=auto;html=1;exitX=1;exitY=0.5;exitDx=0;exitDy=0;entryX=0.5;entryY=0;entryDx=0;entryDy=0;" edge="1" parent="1" source="Iq8EzkBG9caAKW_E3nGO-39" target="Iq8EzkBG9caAKW_E3nGO-96">
          <mxGeometry relative="1" as="geometry">
            <mxPoint x="680" y="539.8333333333335" as="targetPoint" />
            <Array as="points">
              <mxPoint x="650" y="540" />
              <mxPoint x="650" y="780" />
              <mxPoint x="730" y="780" />
            </Array>
          </mxGeometry>
        </mxCell>
        <mxCell id="Iq8EzkBG9caAKW_E3nGO-39" value="&lt;div&gt;INTERCONNECT_&lt;/div&gt;&lt;div&gt;RESET&lt;br&gt;&lt;/div&gt;" style="rounded=0;whiteSpace=wrap;html=1;" vertex="1" parent="1">
          <mxGeometry x="490" y="510" width="120" height="60" as="geometry" />
        </mxCell>
        <mxCell id="Iq8EzkBG9caAKW_E3nGO-155" style="edgeStyle=orthogonalEdgeStyle;rounded=0;jumpSize=6;orthogonalLoop=1;jettySize=auto;html=1;exitX=0;exitY=0.75;exitDx=0;exitDy=0;entryX=0.5;entryY=0;entryDx=0;entryDy=0;fontColor=#FF0000;" edge="1" parent="1" source="Iq8EzkBG9caAKW_E3nGO-40" target="Iq8EzkBG9caAKW_E3nGO-100">
          <mxGeometry relative="1" as="geometry">
            <Array as="points">
              <mxPoint x="470" y="625" />
              <mxPoint x="470" y="820" />
              <mxPoint x="530" y="820" />
            </Array>
          </mxGeometry>
        </mxCell>
        <mxCell id="Iq8EzkBG9caAKW_E3nGO-40" value="CPU0_RESET" style="rounded=0;whiteSpace=wrap;html=1;" vertex="1" parent="1">
          <mxGeometry x="490" y="580" width="120" height="60" as="geometry" />
        </mxCell>
        <mxCell id="Iq8EzkBG9caAKW_E3nGO-69" style="edgeStyle=orthogonalEdgeStyle;rounded=0;jumpSize=6;orthogonalLoop=1;jettySize=auto;html=1;exitX=1;exitY=0.5;exitDx=0;exitDy=0;" edge="1" parent="1" source="Iq8EzkBG9caAKW_E3nGO-41">
          <mxGeometry relative="1" as="geometry">
            <mxPoint x="1070" y="600" as="targetPoint" />
            <Array as="points">
              <mxPoint x="1070" y="680" />
            </Array>
          </mxGeometry>
        </mxCell>
        <mxCell id="Iq8EzkBG9caAKW_E3nGO-41" value="EXT_RESET" style="rounded=0;whiteSpace=wrap;html=1;" vertex="1" parent="1">
          <mxGeometry x="490" y="650" width="120" height="60" as="geometry" />
        </mxCell>
        <mxCell id="Iq8EzkBG9caAKW_E3nGO-151" style="edgeStyle=orthogonalEdgeStyle;rounded=0;jumpSize=6;orthogonalLoop=1;jettySize=auto;html=1;exitX=0;exitY=0.75;exitDx=0;exitDy=0;entryX=0.5;entryY=0;entryDx=0;entryDy=0;fontColor=#FF0000;" edge="1" parent="1" source="Iq8EzkBG9caAKW_E3nGO-42" target="Iq8EzkBG9caAKW_E3nGO-100">
          <mxGeometry relative="1" as="geometry">
            <Array as="points">
              <mxPoint x="470" y="765" />
              <mxPoint x="470" y="820" />
              <mxPoint x="530" y="820" />
            </Array>
          </mxGeometry>
        </mxCell>
        <mxCell id="Iq8EzkBG9caAKW_E3nGO-42" value="NO_RESET" style="rounded=0;whiteSpace=wrap;html=1;" vertex="1" parent="1">
          <mxGeometry x="490" y="720" width="120" height="60" as="geometry" />
        </mxCell>
        <mxCell id="Iq8EzkBG9caAKW_E3nGO-56" value="&lt;div&gt;GetRstSrc&lt;/div&gt;" style="rhombus;whiteSpace=wrap;html=1;" vertex="1" parent="1">
          <mxGeometry x="200" y="430" width="80" height="80" as="geometry" />
        </mxCell>
        <mxCell id="Iq8EzkBG9caAKW_E3nGO-59" value="BootCount++" style="text;html=1;align=center;verticalAlign=middle;resizable=0;points=[];autosize=1;strokeColor=none;" vertex="1" parent="1">
          <mxGeometry x="135" y="425" width="90" height="20" as="geometry" />
        </mxCell>
        <mxCell id="Iq8EzkBG9caAKW_E3nGO-62" style="edgeStyle=orthogonalEdgeStyle;rounded=0;jumpSize=6;orthogonalLoop=1;jettySize=auto;html=1;entryX=0;entryY=0.5;entryDx=0;entryDy=0;exitX=1;exitY=0.5;exitDx=0;exitDy=0;" edge="1" parent="1" source="Iq8EzkBG9caAKW_E3nGO-60" target="382b91b5511bd0f7-9">
          <mxGeometry relative="1" as="geometry">
            <mxPoint x="800" y="260" as="sourcePoint" />
            <Array as="points">
              <mxPoint x="920" y="190" />
              <mxPoint x="920" y="210" />
            </Array>
          </mxGeometry>
        </mxCell>
        <mxCell id="Iq8EzkBG9caAKW_E3nGO-65" value="&lt;div&gt;BootType == A&lt;/div&gt;" style="edgeLabel;html=1;align=center;verticalAlign=middle;resizable=0;points=[];" vertex="1" connectable="0" parent="Iq8EzkBG9caAKW_E3nGO-62">
          <mxGeometry x="0.2429" y="-4" relative="1" as="geometry">
            <mxPoint x="50" y="-14" as="offset" />
          </mxGeometry>
        </mxCell>
        <mxCell id="Iq8EzkBG9caAKW_E3nGO-63" style="edgeStyle=orthogonalEdgeStyle;rounded=0;jumpSize=6;orthogonalLoop=1;jettySize=auto;html=1;exitX=1;exitY=0.5;exitDx=0;exitDy=0;entryX=0;entryY=0.5;entryDx=0;entryDy=0;" edge="1" parent="1" source="Iq8EzkBG9caAKW_E3nGO-60" target="382b91b5511bd0f7-10">
          <mxGeometry relative="1" as="geometry">
            <Array as="points">
              <mxPoint x="920" y="190" />
              <mxPoint x="920" y="390" />
            </Array>
          </mxGeometry>
        </mxCell>
        <mxCell id="Iq8EzkBG9caAKW_E3nGO-66" value="BootType == G" style="edgeLabel;html=1;align=center;verticalAlign=middle;resizable=0;points=[];" vertex="1" connectable="0" parent="Iq8EzkBG9caAKW_E3nGO-63">
          <mxGeometry x="0.5282" y="2" relative="1" as="geometry">
            <mxPoint x="61" y="-8" as="offset" />
          </mxGeometry>
        </mxCell>
        <mxCell id="Iq8EzkBG9caAKW_E3nGO-64" style="edgeStyle=orthogonalEdgeStyle;rounded=0;jumpSize=6;orthogonalLoop=1;jettySize=auto;html=1;exitX=1;exitY=0.5;exitDx=0;exitDy=0;entryX=0;entryY=0.5;entryDx=0;entryDy=0;" edge="1" parent="1" source="Iq8EzkBG9caAKW_E3nGO-60" target="382b91b5511bd0f7-5">
          <mxGeometry relative="1" as="geometry">
            <Array as="points">
              <mxPoint x="920" y="190" />
              <mxPoint x="920" y="570" />
            </Array>
          </mxGeometry>
        </mxCell>
        <mxCell id="Iq8EzkBG9caAKW_E3nGO-67" value="&lt;div&gt;BootType == B&lt;/div&gt;" style="edgeLabel;html=1;align=center;verticalAlign=middle;resizable=0;points=[];" vertex="1" connectable="0" parent="Iq8EzkBG9caAKW_E3nGO-64">
          <mxGeometry x="0.6386" y="1" relative="1" as="geometry">
            <mxPoint x="57" y="-9" as="offset" />
          </mxGeometry>
        </mxCell>
        <mxCell id="Iq8EzkBG9caAKW_E3nGO-60" value="BootType" style="rhombus;whiteSpace=wrap;html=1;" vertex="1" parent="1">
          <mxGeometry x="690" y="150" width="80" height="80" as="geometry" />
        </mxCell>
        <mxCell id="Iq8EzkBG9caAKW_E3nGO-83" style="edgeStyle=orthogonalEdgeStyle;rounded=0;jumpSize=6;orthogonalLoop=1;jettySize=auto;html=1;exitX=0.5;exitY=1;exitDx=0;exitDy=0;entryX=0.5;entryY=0;entryDx=0;entryDy=0;" edge="1" parent="1" source="Iq8EzkBG9caAKW_E3nGO-70" target="382b91b5511bd0f7-10">
          <mxGeometry relative="1" as="geometry">
            <Array as="points">
              <mxPoint x="1315" y="313" />
              <mxPoint x="1100" y="313" />
            </Array>
          </mxGeometry>
        </mxCell>
        <mxCell id="Iq8EzkBG9caAKW_E3nGO-84" value="Fail" style="edgeLabel;html=1;align=center;verticalAlign=middle;resizable=0;points=[];" vertex="1" connectable="0" parent="Iq8EzkBG9caAKW_E3nGO-83">
          <mxGeometry x="0.1083" y="1" relative="1" as="geometry">
            <mxPoint x="10" y="-13" as="offset" />
          </mxGeometry>
        </mxCell>
        <mxCell id="Iq8EzkBG9caAKW_E3nGO-85" style="edgeStyle=orthogonalEdgeStyle;rounded=0;jumpSize=6;orthogonalLoop=1;jettySize=auto;html=1;exitX=1;exitY=0.5;exitDx=0;exitDy=0;entryX=0;entryY=0.5;entryDx=0;entryDy=0;" edge="1" parent="1" source="Iq8EzkBG9caAKW_E3nGO-70" target="Iq8EzkBG9caAKW_E3nGO-76">
          <mxGeometry relative="1" as="geometry" />
        </mxCell>
        <mxCell id="Iq8EzkBG9caAKW_E3nGO-86" value="Pass" style="edgeLabel;html=1;align=center;verticalAlign=middle;resizable=0;points=[];" vertex="1" connectable="0" parent="Iq8EzkBG9caAKW_E3nGO-85">
          <mxGeometry x="-0.281" y="-1" relative="1" as="geometry">
            <mxPoint x="5" y="-11" as="offset" />
          </mxGeometry>
        </mxCell>
        <mxCell id="Iq8EzkBG9caAKW_E3nGO-70" value="verify_application" style="rhombus;whiteSpace=wrap;html=1;" vertex="1" parent="1">
          <mxGeometry x="1260" y="155" width="110" height="110" as="geometry" />
        </mxCell>
        <mxCell id="Iq8EzkBG9caAKW_E3nGO-79" style="edgeStyle=orthogonalEdgeStyle;rounded=0;jumpSize=6;orthogonalLoop=1;jettySize=auto;html=1;exitX=0.5;exitY=1;exitDx=0;exitDy=0;" edge="1" parent="1" source="Iq8EzkBG9caAKW_E3nGO-71" target="382b91b5511bd0f7-5">
          <mxGeometry relative="1" as="geometry" />
        </mxCell>
        <mxCell id="Iq8EzkBG9caAKW_E3nGO-80" value="Fail" style="edgeLabel;html=1;align=center;verticalAlign=middle;resizable=0;points=[];" vertex="1" connectable="0" parent="Iq8EzkBG9caAKW_E3nGO-79">
          <mxGeometry x="0.0719" y="2" relative="1" as="geometry">
            <mxPoint x="14" y="-10" as="offset" />
          </mxGeometry>
        </mxCell>
        <mxCell id="Iq8EzkBG9caAKW_E3nGO-81" style="edgeStyle=orthogonalEdgeStyle;rounded=0;jumpSize=6;orthogonalLoop=1;jettySize=auto;html=1;exitX=1;exitY=0.5;exitDx=0;exitDy=0;entryX=0;entryY=0.5;entryDx=0;entryDy=0;" edge="1" parent="1" source="Iq8EzkBG9caAKW_E3nGO-71" target="Iq8EzkBG9caAKW_E3nGO-77">
          <mxGeometry relative="1" as="geometry" />
        </mxCell>
        <mxCell id="Iq8EzkBG9caAKW_E3nGO-82" value="Pass" style="edgeLabel;html=1;align=center;verticalAlign=middle;resizable=0;points=[];" vertex="1" connectable="0" parent="Iq8EzkBG9caAKW_E3nGO-81">
          <mxGeometry x="-0.2667" y="-3" relative="1" as="geometry">
            <mxPoint x="11" y="-13" as="offset" />
          </mxGeometry>
        </mxCell>
        <mxCell id="Iq8EzkBG9caAKW_E3nGO-71" value="verify_golden" style="rhombus;whiteSpace=wrap;html=1;" vertex="1" parent="1">
          <mxGeometry x="1260" y="335" width="110" height="110" as="geometry" />
        </mxCell>
        <mxCell id="Iq8EzkBG9caAKW_E3nGO-76" value="Working Image&lt;br&gt;Running" style="ellipse;whiteSpace=wrap;html=1;aspect=fixed;fontFamily=Helvetica;fontSize=12;fontColor=#000000;align=center;strokeColor=#000000;fillColor=#ffffff;" vertex="1" parent="1">
          <mxGeometry x="1440" y="180" width="120" height="60" as="geometry" />
        </mxCell>
        <mxCell id="Iq8EzkBG9caAKW_E3nGO-77" value="&lt;div&gt;Golden Image&lt;/div&gt;&lt;div&gt;Running&lt;br&gt;&lt;/div&gt;" style="ellipse;whiteSpace=wrap;html=1;fontFamily=Helvetica;fontSize=12;fontColor=#000000;align=center;strokeColor=#000000;fillColor=#ffffff;" vertex="1" parent="1">
          <mxGeometry x="1440" y="360" width="120" height="60" as="geometry" />
        </mxCell>
        <mxCell id="Iq8EzkBG9caAKW_E3nGO-78" value="&lt;div&gt;Bootloader&lt;/div&gt;&lt;div&gt;Running&lt;br&gt;&lt;/div&gt;" style="ellipse;whiteSpace=wrap;html=1;fontFamily=Helvetica;fontSize=12;fontColor=#000000;align=center;strokeColor=#000000;fillColor=#ffffff;" vertex="1" parent="1">
          <mxGeometry x="1440" y="540" width="120" height="60" as="geometry" />
        </mxCell>
        <mxCell id="Iq8EzkBG9caAKW_E3nGO-90" style="edgeStyle=orthogonalEdgeStyle;rounded=0;jumpSize=6;orthogonalLoop=1;jettySize=auto;html=1;exitX=1;exitY=0.5;exitDx=0;exitDy=0;entryX=0.5;entryY=1;entryDx=0;entryDy=0;" edge="1" parent="1" source="Iq8EzkBG9caAKW_E3nGO-89" target="Iq8EzkBG9caAKW_E3nGO-60">
          <mxGeometry relative="1" as="geometry">
            <Array as="points">
              <mxPoint x="860" y="330" />
              <mxPoint x="900" y="330" />
              <mxPoint x="900" y="270" />
              <mxPoint x="730" y="270" />
            </Array>
          </mxGeometry>
        </mxCell>
        <mxCell id="Iq8EzkBG9caAKW_E3nGO-89" value="Handle PLL failure" style="rounded=0;whiteSpace=wrap;html=1;" vertex="1" parent="1">
          <mxGeometry x="740" y="310" width="120" height="60" as="geometry" />
        </mxCell>
        <mxCell id="Iq8EzkBG9caAKW_E3nGO-101" style="edgeStyle=orthogonalEdgeStyle;rounded=0;jumpSize=6;orthogonalLoop=1;jettySize=auto;html=1;exitX=0;exitY=0.5;exitDx=0;exitDy=0;entryX=1;entryY=0.5;entryDx=0;entryDy=0;" edge="1" parent="1" source="Iq8EzkBG9caAKW_E3nGO-96" target="Iq8EzkBG9caAKW_E3nGO-100">
          <mxGeometry relative="1" as="geometry">
            <Array as="points">
              <mxPoint x="690" y="870" />
            </Array>
          </mxGeometry>
        </mxCell>
        <mxCell id="Iq8EzkBG9caAKW_E3nGO-103" value="&lt;div&gt;Pass || Fail&lt;/div&gt;" style="edgeLabel;html=1;align=center;verticalAlign=middle;resizable=0;points=[];" vertex="1" connectable="0" parent="Iq8EzkBG9caAKW_E3nGO-101">
          <mxGeometry x="-0.8556" relative="1" as="geometry">
            <mxPoint x="-32" y="-10" as="offset" />
          </mxGeometry>
        </mxCell>
        <mxCell id="Iq8EzkBG9caAKW_E3nGO-96" value="&lt;div&gt;Self Test&lt;/div&gt;&lt;div&gt;Complete&lt;br&gt;&lt;/div&gt;" style="rhombus;whiteSpace=wrap;html=1;" vertex="1" parent="1">
          <mxGeometry x="690" y="830" width="80" height="80" as="geometry" />
        </mxCell>
        <mxCell id="Iq8EzkBG9caAKW_E3nGO-102" style="edgeStyle=orthogonalEdgeStyle;rounded=0;jumpSize=6;orthogonalLoop=1;jettySize=auto;html=1;exitX=0;exitY=0.5;exitDx=0;exitDy=0;entryX=1;entryY=0.5;entryDx=0;entryDy=0;" edge="1" parent="1" source="Iq8EzkBG9caAKW_E3nGO-100" target="382b91b5511bd0f7-1">
          <mxGeometry relative="1" as="geometry" />
        </mxCell>
        <mxCell id="Iq8EzkBG9caAKW_E3nGO-100" value="Trigger SW_RESET" style="rounded=0;whiteSpace=wrap;html=1;" vertex="1" parent="1">
          <mxGeometry x="470" y="850" width="120" height="40" as="geometry" />
        </mxCell>
        <mxCell id="Iq8EzkBG9caAKW_E3nGO-124" style="edgeStyle=orthogonalEdgeStyle;rounded=0;jumpSize=6;orthogonalLoop=1;jettySize=auto;html=1;exitX=0.5;exitY=1;exitDx=0;exitDy=0;entryX=0;entryY=0.5;entryDx=0;entryDy=0;" edge="1" parent="1" source="Iq8EzkBG9caAKW_E3nGO-109" target="Iq8EzkBG9caAKW_E3nGO-114">
          <mxGeometry relative="1" as="geometry">
            <Array as="points">
              <mxPoint x="860" y="825" />
            </Array>
          </mxGeometry>
        </mxCell>
        <mxCell id="Iq8EzkBG9caAKW_E3nGO-139" style="edgeStyle=orthogonalEdgeStyle;rounded=0;jumpSize=6;orthogonalLoop=1;jettySize=auto;html=1;exitX=0.5;exitY=0;exitDx=0;exitDy=0;entryX=0;entryY=0.5;entryDx=0;entryDy=0;" edge="1" parent="1" source="Iq8EzkBG9caAKW_E3nGO-109" target="Iq8EzkBG9caAKW_E3nGO-113">
          <mxGeometry relative="1" as="geometry" />
        </mxCell>
        <mxCell id="Iq8EzkBG9caAKW_E3nGO-109" value="Attempts &amp;gt; 5" style="rhombus;whiteSpace=wrap;html=1;" vertex="1" parent="1">
          <mxGeometry x="810" y="720" width="100" height="95" as="geometry" />
        </mxCell>
        <mxCell id="Iq8EzkBG9caAKW_E3nGO-120" style="edgeStyle=orthogonalEdgeStyle;rounded=0;jumpSize=6;orthogonalLoop=1;jettySize=auto;html=1;exitX=1;exitY=0.5;exitDx=0;exitDy=0;entryX=0;entryY=0.75;entryDx=0;entryDy=0;" edge="1" parent="1" source="Iq8EzkBG9caAKW_E3nGO-113" target="382b91b5511bd0f7-10">
          <mxGeometry relative="1" as="geometry" />
        </mxCell>
        <mxCell id="Iq8EzkBG9caAKW_E3nGO-113" value="&lt;div&gt;BootType == A \&lt;/div&gt;&lt;div&gt;Attempts = 0&lt;br&gt;&lt;/div&gt;" style="rhombus;whiteSpace=wrap;html=1;" vertex="1" parent="1">
          <mxGeometry x="850" y="580" width="120" height="90" as="geometry" />
        </mxCell>
        <mxCell id="Iq8EzkBG9caAKW_E3nGO-119" style="edgeStyle=orthogonalEdgeStyle;rounded=0;jumpSize=6;orthogonalLoop=1;jettySize=auto;html=1;exitX=1;exitY=0.5;exitDx=0;exitDy=0;entryX=0;entryY=0.75;entryDx=0;entryDy=0;" edge="1" parent="1" source="Iq8EzkBG9caAKW_E3nGO-114" target="382b91b5511bd0f7-5">
          <mxGeometry relative="1" as="geometry">
            <Array as="points">
              <mxPoint x="1070" y="825" />
              <mxPoint x="1070" y="740" />
              <mxPoint x="1020" y="740" />
              <mxPoint x="1020" y="585" />
            </Array>
          </mxGeometry>
        </mxCell>
        <mxCell id="Iq8EzkBG9caAKW_E3nGO-114" value="&lt;div&gt;BootType == G&lt;/div&gt;&lt;div&gt;|| BootType == B \&lt;/div&gt;&lt;div&gt;Attempts = 0&lt;br&gt;&lt;/div&gt;" style="rhombus;whiteSpace=wrap;html=1;" vertex="1" parent="1">
          <mxGeometry x="920" y="770" width="130" height="100" as="geometry" />
        </mxCell>
        <mxCell id="Iq8EzkBG9caAKW_E3nGO-130" style="edgeStyle=orthogonalEdgeStyle;rounded=0;jumpSize=6;orthogonalLoop=1;jettySize=auto;html=1;exitX=1;exitY=0.5;exitDx=0;exitDy=0;entryX=0.5;entryY=1;entryDx=0;entryDy=0;" edge="1" parent="1" source="Iq8EzkBG9caAKW_E3nGO-129" target="Iq8EzkBG9caAKW_E3nGO-60">
          <mxGeometry relative="1" as="geometry">
            <Array as="points">
              <mxPoint x="900" y="448" />
              <mxPoint x="900" y="270" />
              <mxPoint x="730" y="270" />
            </Array>
          </mxGeometry>
        </mxCell>
        <mxCell id="Iq8EzkBG9caAKW_E3nGO-129" value="&lt;div&gt;Attempts &amp;lt; 5 \&lt;/div&gt;&lt;div&gt;Attempts ++&lt;br&gt;&lt;/div&gt;" style="rhombus;whiteSpace=wrap;html=1;" vertex="1" parent="1">
          <mxGeometry x="770" y="400" width="100" height="95" as="geometry" />
        </mxCell>
      </root>
    </mxGraphModel>
  </diagram>
</mxfile>
